<svg width="45" height="45" viewBox="0 0 45 45" fill="none" xmlns="http://www.w3.org/2000/svg">
<mask id="mask0_139_13" style="mask-type:alpha" maskUnits="userSpaceOnUse" x="0" y="0" width="45" height="45">
<rect width="45" height="45" transform="matrix(-1 0 0 1 45 0)" fill="#D9D9D9"/>
</mask>
<g mask="url(#mask0_139_13)">
<path d="M20.4375 43.125C23.0625 43.125 25.5234 42.625 27.8203 41.625C30.1172 40.625 32.1172 39.2734 33.8203 37.5703C35.5234 35.8672 36.875 33.8672 37.875 31.5703C38.875 29.2734 39.375 26.8125 39.375 24.1875C39.375 19.625 37.9219 15.6016 35.0156 12.1172C32.1094 8.63281 28.4063 6.46875 23.9063 5.625C24.4688 8.71875 24.2969 11.7422 23.3906 14.6953C22.4844 17.6484 20.9219 20.2344 18.7031 22.4531C16.4844 24.6719 13.8984 26.2344 10.9453 27.1406C7.99219 28.0469 4.96875 28.2187 1.875 27.6562C2.6875 32.1562 4.84375 35.8594 8.34375 38.7656C11.8438 41.6719 15.875 43.125 20.4375 43.125Z" fill="#1C1B1F"/>
</g>
</svg>
