<svg width="30" height="30" viewBox="0 0 30 30" fill="#000000" xmlns="http://www.w3.org/2000/svg">
    <mask id="mask0_35_204" style="mask-type:alpha" maskUnits="userSpaceOnUse" x="0" y="0" width="30" height="30">
        <rect x="0.5" y="0.5" width="29" height="29" fill="#D9D9D9" stroke="#070707" />
    </mask>
    <g mask="url(#mask0_35_204)">
        <path
            d="M20.4211 12.921C20.1514 13.1907 19.8363 13.3214 19.4465 13.3214C19.0568 13.3214 18.7417 13.1907 18.472 12.921C18.2022 12.6512 18.0715 12.3361 18.0715 11.9464C18.0715 11.5567 18.2022 11.2416 18.472 10.9718C18.7417 10.7021 19.0568 10.5714 19.4465 10.5714C19.8363 10.5714 20.1514 10.7021 20.4211 10.9718C20.6909 11.2416 20.8215 11.5567 20.8215 11.9464C20.8215 12.3361 20.6909 12.6512 20.4211 12.921ZM11.6711 12.921C11.4014 13.1907 11.0863 13.3214 10.6965 13.3214C10.3068 13.3214 9.99171 13.1907 9.72196 12.921C9.45221 12.6512 9.32153 12.3361 9.32153 11.9464C9.32153 11.5567 9.45221 11.2416 9.72196 10.9718C9.99171 10.7021 10.3068 10.5714 10.6965 10.5714C11.0863 10.5714 11.4014 10.7021 11.6711 10.9718C11.9409 11.2416 12.0715 11.5567 12.0715 11.9464C12.0715 12.3361 11.9409 12.6512 11.6711 12.921ZM18.6459 20.3325C17.574 21.0761 16.3871 21.4464 15.0715 21.4464C13.756 21.4464 12.5691 21.0761 11.4971 20.3325C10.631 19.7316 9.95881 18.9797 9.47683 18.0714H20.6662C20.1843 18.9797 19.5121 19.7316 18.6459 20.3325ZM15.0715 27.0714C13.4074 27.0714 11.8502 26.756 10.3946 26.128C8.92939 25.4957 7.65982 24.6401 6.58134 23.5616C5.50285 22.4831 4.64725 21.2135 4.01499 19.7483C3.38692 18.2928 3.07153 16.7355 3.07153 15.0714C3.07153 13.4073 3.38692 11.85 4.01499 10.3945C4.64725 8.92927 5.50285 7.6597 6.58134 6.58121C7.65982 5.50273 8.92939 4.64713 10.3946 4.01487C11.8502 3.3868 13.4074 3.07141 15.0715 3.07141C16.7356 3.07141 18.2929 3.3868 19.7484 4.01487C21.2137 4.64713 22.4832 5.50273 23.5617 6.58121C24.6402 7.6597 25.4958 8.92927 26.1281 10.3945C26.7561 11.85 27.0715 13.4073 27.0715 15.0714C27.0715 16.7355 26.7561 18.2928 26.1281 19.7483C25.4958 21.2135 24.6402 22.4831 23.5617 23.5616C22.4832 24.6401 21.2137 25.4957 19.7484 26.128C18.2929 26.756 16.7356 27.0714 15.0715 27.0714ZM15.0715 25.5714C17.993 25.5714 20.4856 24.5519 22.5188 22.5187C24.5521 20.4855 25.5715 17.9929 25.5715 15.0714C25.5715 12.1499 24.5521 9.65734 22.5188 7.62411C20.4856 5.59088 17.993 4.57141 15.0715 4.57141C12.1501 4.57141 9.65746 5.59088 7.62423 7.62411C5.591 9.65734 4.57153 12.1499 4.57153 15.0714C4.57153 17.9929 5.591 20.4855 7.62423 22.5187C9.65746 24.5519 12.1501 25.5714 15.0715 25.5714Z"
            fill="#1C1B1F" stroke="#070707" />
    </g>
</svg>