<svg width="30" height="30" viewBox="0 0 30 30" fill="none" xmlns="http://www.w3.org/2000/svg">
<mask id="mask0_29_1028" style="mask-type:alpha" maskUnits="userSpaceOnUse" x="0" y="0" width="30" height="30">
<rect x="0.5" y="0.5" width="29" height="29" fill="#D9D9D9" stroke="#938B8B"/>
</mask>
<g mask="url(#mask0_29_1028)">
<path d="M19.4465 13.8214C19.9674 13.8214 20.4101 13.6391 20.7747 13.2745C21.1392 12.91 21.3215 12.4672 21.3215 11.9464C21.3215 11.4256 21.1392 10.9829 20.7747 10.6183C20.4101 10.2537 19.9674 10.0714 19.4465 10.0714C18.9257 10.0714 18.483 10.2537 18.1184 10.6183C17.7538 10.9829 17.5715 11.4256 17.5715 11.9464C17.5715 12.4672 17.7538 12.91 18.1184 13.2745C18.483 13.6391 18.9257 13.8214 19.4465 13.8214ZM10.6965 13.8214C11.2174 13.8214 11.6601 13.6391 12.0247 13.2745C12.3892 12.91 12.5715 12.4672 12.5715 11.9464C12.5715 11.4256 12.3892 10.9829 12.0247 10.6183C11.6601 10.2537 11.2174 10.0714 10.6965 10.0714C10.1757 10.0714 9.73299 10.2537 9.36841 10.6183C9.00382 10.9829 8.82153 11.4256 8.82153 11.9464C8.82153 12.4672 9.00382 12.91 9.36841 13.2745C9.73299 13.6391 10.1757 13.8214 10.6965 13.8214ZM15.0715 21.9464C16.4882 21.9464 17.7747 21.5454 18.9309 20.7433C20.0872 19.9412 20.9257 18.8839 21.4465 17.5714H8.69653C9.21737 18.8839 10.0559 19.9412 11.2122 20.7433C12.3684 21.5454 13.6549 21.9464 15.0715 21.9464ZM15.0715 27.5714C13.3424 27.5714 11.7174 27.2433 10.1965 26.587C8.6757 25.9308 7.35278 25.0402 6.22778 23.9152C5.10278 22.7902 4.21216 21.4672 3.55591 19.9464C2.89966 18.4256 2.57153 16.8006 2.57153 15.0714C2.57153 13.3422 2.89966 11.7172 3.55591 10.1964C4.21216 8.67558 5.10278 7.35266 6.22778 6.22766C7.35278 5.10266 8.6757 4.21204 10.1965 3.55579C11.7174 2.89954 13.3424 2.57141 15.0715 2.57141C16.8007 2.57141 18.4257 2.89954 19.9465 3.55579C21.4674 4.21204 22.7903 5.10266 23.9153 6.22766C25.0403 7.35266 25.9309 8.67558 26.5872 10.1964C27.2434 11.7172 27.5715 13.3422 27.5715 15.0714C27.5715 16.8006 27.2434 18.4256 26.5872 19.9464C25.9309 21.4672 25.0403 22.7902 23.9153 23.9152C22.7903 25.0402 21.4674 25.9308 19.9465 26.587C18.4257 27.2433 16.8007 27.5714 15.0715 27.5714ZM15.0715 25.0714C17.8632 25.0714 20.2278 24.1027 22.1653 22.1652C24.1028 20.2277 25.0715 17.8631 25.0715 15.0714C25.0715 12.2797 24.1028 9.91516 22.1653 7.97766C20.2278 6.04016 17.8632 5.07141 15.0715 5.07141C12.2799 5.07141 9.91528 6.04016 7.97778 7.97766C6.04028 9.91516 5.07153 12.2797 5.07153 15.0714C5.07153 17.8631 6.04028 20.2277 7.97778 22.1652C9.91528 24.1027 12.2799 25.0714 15.0715 25.0714Z" fill="#E4E3E8"/>
</g>
</svg>
