<svg width="41" height="41" viewBox="0 0 41 41" fill="none" xmlns="http://www.w3.org/2000/svg">
<mask id="mask0_139_37" style="mask-type:alpha" maskUnits="userSpaceOnUse" x="0" y="0" width="41" height="41">
<rect width="41" height="41" fill="#D9D9D9"/>
</mask>
<g mask="url(#mask0_139_37)">
<path d="M15.8019 37.5833L15.1186 32.1167C14.7484 31.9743 14.3996 31.8035 14.0722 31.6042C13.7448 31.4049 13.4245 31.1913 13.1113 30.9635L8.02897 33.0989L3.33105 24.9844L7.73001 21.6531C7.70154 21.4538 7.6873 21.2616 7.6873 21.0766V19.9234C7.6873 19.7384 7.70154 19.5462 7.73001 19.3469L3.33105 16.0156L8.02897 7.90103L13.1113 10.0364C13.4245 9.80867 13.7519 9.59513 14.0936 9.39582C14.4352 9.19652 14.7769 9.02568 15.1186 8.88332L15.8019 3.41666H25.1977L25.8811 8.88332C26.2512 9.02568 26.6 9.19652 26.9274 9.39582C27.2548 9.59513 27.5752 9.80867 27.8883 10.0364L32.9706 7.90103L37.6686 16.0156L33.2696 19.3469C33.2981 19.5462 33.3123 19.7384 33.3123 19.9234V21.0766C33.3123 21.2616 33.2838 21.4538 33.2269 21.6531L37.6258 24.9844L32.9279 33.0989L27.8883 30.9635C27.5752 31.1913 27.2477 31.4049 26.9061 31.6042C26.5644 31.8035 26.2227 31.9743 25.8811 32.1167L25.1977 37.5833H15.8019ZM20.5852 26.4792C22.2366 26.4792 23.646 25.8955 24.8133 24.7281C25.9807 23.5608 26.5644 22.1514 26.5644 20.5C26.5644 18.8486 25.9807 17.4392 24.8133 16.2719C23.646 15.1045 22.2366 14.5208 20.5852 14.5208C18.9054 14.5208 17.4889 15.1045 16.3357 16.2719C15.1826 17.4392 14.6061 18.8486 14.6061 20.5C14.6061 22.1514 15.1826 23.5608 16.3357 24.7281C17.4889 25.8955 18.9054 26.4792 20.5852 26.4792ZM20.5852 23.0625C19.8734 23.0625 19.2684 22.8134 18.7701 22.3151C18.2719 21.8168 18.0227 21.2118 18.0227 20.5C18.0227 19.7882 18.2719 19.1832 18.7701 18.6849C19.2684 18.1866 19.8734 17.9375 20.5852 17.9375C21.297 17.9375 21.9021 18.1866 22.4003 18.6849C22.8986 19.1832 23.1477 19.7882 23.1477 20.5C23.1477 21.2118 22.8986 21.8168 22.4003 22.3151C21.9021 22.8134 21.297 23.0625 20.5852 23.0625ZM18.7915 34.1667H22.1654L22.7633 29.6396C23.646 29.4118 24.4646 29.0772 25.2191 28.6359C25.9736 28.1946 26.664 27.6608 27.2904 27.0344L31.5186 28.7854L33.1842 25.8812L29.5113 23.1052C29.6536 22.7066 29.7533 22.2866 29.8102 21.8453C29.8672 21.404 29.8956 20.9555 29.8956 20.5C29.8956 20.0444 29.8672 19.596 29.8102 19.1547C29.7533 18.7134 29.6536 18.2934 29.5113 17.8948L33.1842 15.1187L31.5186 12.2146L27.2904 14.0083C26.664 13.3535 25.9736 12.8054 25.2191 12.3641C24.4646 11.9227 23.646 11.5882 22.7633 11.3604L22.2081 6.83332H18.8342L18.2363 11.3604C17.3536 11.5882 16.535 11.9227 15.7805 12.3641C15.026 12.8054 14.3356 13.3392 13.7092 13.9656L9.48106 12.2146L7.81543 15.1187L11.4883 17.8521C11.346 18.2792 11.2463 18.7062 11.1894 19.1333C11.1324 19.5604 11.104 20.016 11.104 20.5C11.104 20.9555 11.1324 21.3969 11.1894 21.8239C11.2463 22.251 11.346 22.6781 11.4883 23.1052L7.81543 25.8812L9.48106 28.7854L13.7092 26.9917C14.3356 27.6465 15.026 28.1946 15.7805 28.6359C16.535 29.0772 17.3536 29.4118 18.2363 29.6396L18.7915 34.1667Z" fill="#FBD471"/>
</g>
</svg>
