<svg width="41" height="41" viewBox="0 0 41 41" fill="none" xmlns="http://www.w3.org/2000/svg">
<mask id="mask0_141_2" style="mask-type:alpha" maskUnits="userSpaceOnUse" x="0" y="0" width="41" height="41">
<rect width="41" height="41" fill="#D9D9D9"/>
</mask>
<g mask="url(#mask0_141_2)">
<path d="M15.802 37.5834L15.1187 32.1167C14.7485 31.9743 14.3998 31.8035 14.0723 31.6042C13.7449 31.4049 13.4246 31.1913 13.1114 30.9636L8.02909 33.099L3.33118 24.9844L7.73014 21.6531C7.70166 21.4538 7.68743 21.2617 7.68743 21.0766V19.9235C7.68743 19.7384 7.70166 19.5462 7.73014 19.3469L3.33118 16.0156L8.02909 7.90106L13.1114 10.0365C13.4246 9.8087 13.752 9.59516 14.0937 9.39585C14.4353 9.19655 14.777 9.02572 15.1187 8.88335L15.802 3.41669H25.1978L25.8812 8.88335C26.2513 9.02572 26.6001 9.19655 26.9275 9.39585C27.255 9.59516 27.5753 9.8087 27.8885 10.0365L32.9708 7.90106L37.6687 16.0156L33.2697 19.3469C33.2982 19.5462 33.3124 19.7384 33.3124 19.9235V21.0766C33.3124 21.2617 33.284 21.4538 33.227 21.6531L37.626 24.9844L32.9281 33.099L27.8885 30.9636C27.5753 31.1913 27.2478 31.4049 26.9062 31.6042C26.5645 31.8035 26.2228 31.9743 25.8812 32.1167L25.1978 37.5834H15.802ZM20.5853 26.4792C22.2367 26.4792 23.6461 25.8955 24.8135 24.7281C25.9808 23.5608 26.5645 22.1514 26.5645 20.5C26.5645 18.8486 25.9808 17.4393 24.8135 16.2719C23.6461 15.1045 22.2367 14.5209 20.5853 14.5209C18.9055 14.5209 17.489 15.1045 16.3359 16.2719C15.1827 17.4393 14.6062 18.8486 14.6062 20.5C14.6062 22.1514 15.1827 23.5608 16.3359 24.7281C17.489 25.8955 18.9055 26.4792 20.5853 26.4792ZM20.5853 23.0625C19.8735 23.0625 19.2685 22.8134 18.7702 22.3151C18.272 21.8169 18.0228 21.2118 18.0228 20.5C18.0228 19.7882 18.272 19.1832 18.7702 18.6849C19.2685 18.1867 19.8735 17.9375 20.5853 17.9375C21.2972 17.9375 21.9022 18.1867 22.4004 18.6849C22.8987 19.1832 23.1478 19.7882 23.1478 20.5C23.1478 21.2118 22.8987 21.8169 22.4004 22.3151C21.9022 22.8134 21.2972 23.0625 20.5853 23.0625ZM18.7916 34.1667H22.1656L22.7635 29.6396C23.6461 29.4118 24.4647 29.0773 25.2192 28.636C25.9737 28.1946 26.6642 27.6608 27.2906 27.0344L31.5187 28.7854L33.1843 25.8813L29.5114 23.1052C29.6537 22.7066 29.7534 22.2867 29.8103 21.8453C29.8673 21.404 29.8958 20.9556 29.8958 20.5C29.8958 20.0445 29.8673 19.596 29.8103 19.1547C29.7534 18.7134 29.6537 18.2934 29.5114 17.8948L33.1843 15.1188L31.5187 12.2146L27.2906 14.0084C26.6642 13.3535 25.9737 12.8054 25.2192 12.3641C24.4647 11.9228 23.6461 11.5882 22.7635 11.3604L22.2083 6.83335H18.8343L18.2364 11.3604C17.3537 11.5882 16.5352 11.9228 15.7807 12.3641C15.0261 12.8054 14.3357 13.3393 13.7093 13.9656L9.48118 12.2146L7.81555 15.1188L11.4885 17.8521C11.3461 18.2792 11.2465 18.7063 11.1895 19.1334C11.1326 19.5604 11.1041 20.016 11.1041 20.5C11.1041 20.9556 11.1326 21.3969 11.1895 21.824C11.2465 22.2511 11.3461 22.6781 11.4885 23.1052L7.81555 25.8813L9.48118 28.7854L13.7093 26.9917C14.3357 27.6465 15.0261 28.1946 15.7807 28.636C16.5352 29.0773 17.3537 29.4118 18.2364 29.6396L18.7916 34.1667Z" fill="black"/>
</g>
</svg>
