<svg width="45" height="45" viewBox="0 0 45 45" fill="none" xmlns="http://www.w3.org/2000/svg">
<mask id="mask0_139_31" style="mask-type:alpha" maskUnits="userSpaceOnUse" x="0" y="0" width="45" height="45">
<rect width="45" height="45" fill="#D9D9D9"/>
</mask>
<g mask="url(#mask0_139_31)">
<path d="M34.4063 18.9375L31.7812 16.2188L35.8125 12.2812L38.4375 14.9063L34.4063 18.9375ZM3.75 37.5V33.75H41.25V37.5H3.75ZM20.625 13.125V7.5H24.375V13.125H20.625ZM10.5938 18.8438L6.65625 14.8125L9.28125 12.1875L13.3125 16.2188L10.5938 18.8438ZM9.375 30C9.375 26.3437 10.6484 23.2422 13.1953 20.6953C15.7422 18.1484 18.8437 16.875 22.5 16.875C26.1563 16.875 29.2578 18.1484 31.8047 20.6953C34.3516 23.2422 35.625 26.3437 35.625 30H9.375Z" fill="#FBD471"/>
</g>
</svg>
