<svg width="65" height="59" viewBox="0 0 65 59" fill="none" xmlns="http://www.w3.org/2000/svg">
<path d="M29.0856 5.75033C29.0553 5.8136 29.173 7.2714 29.3495 8.97152L29.6586 12.0782L30.3107 13.0918C31.3496 14.7388 34.327 19.5446 36.2498 22.7155C37.2293 24.3241 38.0512 25.6529 38.067 25.6605C38.2173 25.7326 37.9968 24.9553 36.6269 20.5512L35.0792 15.585L33.485 12.3578C31.838 9.01768 31.7089 8.80003 30.0914 6.79748C29.3827 5.92211 29.1312 5.65542 29.0856 5.75033Z" fill="url(#paint0_linear_29_942)"/>
<path d="M34.0646 10.5828C34.0304 10.654 36.1039 15.6196 37.4194 18.5962C38.9304 22.017 40.6663 25.5166 40.8099 25.4201C40.8526 25.3919 40.8121 24.8275 40.715 24.1581L40.5347 22.9525L37.3425 16.7493C35.5924 13.3402 34.1424 10.5423 34.1266 10.5347C34.1108 10.5271 34.0798 10.5511 34.0646 10.5828Z" fill="url(#paint1_linear_29_942)"/>
<path d="M29.8202 15.0264C29.7971 15.2976 30.7406 20.0224 30.8494 20.2012C30.9139 20.31 31.3983 20.9025 31.9263 21.5257C32.7824 22.54 34.2586 24.2898 37.5228 28.1531C38.1027 28.8305 38.594 29.368 38.6367 29.3398C38.6949 29.2996 37.5415 27.1209 33.8688 20.3172C32.8494 18.4267 32.7649 18.2985 31.4125 16.6762C30.644 15.743 29.9762 14.9651 29.9208 14.9385C29.8734 14.9157 29.8269 14.9518 29.8202 15.0264Z" fill="url(#paint2_linear_29_942)"/>
<path d="M47.0047 24.6177C46.3236 24.4757 45.9107 24.4235 45.9041 24.4981C45.8901 24.6082 48.08 26.5741 48.4043 26.7297C48.8592 26.9578 51.4604 27.6614 51.5021 27.5744C51.5553 27.4636 48.7554 25.1466 48.3483 24.9609C48.2059 24.8926 47.607 24.7414 47.0047 24.6177Z" fill="url(#paint3_linear_29_942)"/>
<path d="M58.5432 30.3409C57.6172 30.1008 55.7848 29.6202 54.4842 29.2685C53.1799 28.9246 52.0767 28.6481 52.0337 28.6566C51.9555 28.6775 51.8698 29.9306 51.9315 30.1062C51.9685 30.2116 60.442 31.0479 60.4875 30.953C60.5331 30.8581 60.3872 30.8173 58.5432 30.3409Z" fill="url(#paint4_linear_29_942)"/>
<path d="M43.6955 25.0242C42.7423 25.2868 42.6411 25.3356 41.8818 25.9442C41.0488 26.6051 40.9255 26.7405 41.0757 26.8127C41.1469 26.8468 46.0951 26.3707 46.2903 26.3086C46.3371 26.2922 46.0337 25.9714 45.6117 25.5937C45.2014 25.2118 44.823 24.8648 44.7831 24.8262C44.7354 24.7838 44.2542 24.874 43.6955 25.0242Z" fill="url(#paint5_linear_29_942)"/>
<path d="M46.8744 27.4843C46.6077 27.4926 46.298 27.7526 46.2743 27.9845C46.2718 28.0709 46.3414 28.2502 46.4379 28.3939C46.5464 28.553 46.572 28.6821 46.5103 28.7498C46.4562 28.8017 46.3389 29.3097 46.2421 29.8763L46.0782 30.9071L48.2797 30.1927C50.5787 29.4375 50.8587 29.28 50.2004 29.0905C50.0308 29.0383 49.5844 28.8532 49.2048 28.671L48.5167 28.3407L48.1323 28.5941C47.7675 28.8472 47.3256 28.9367 47.0646 28.8115C46.9222 28.7431 46.9222 28.7431 47.2013 28.5267C47.4996 28.2904 47.542 27.9994 47.3335 27.7241C47.1408 27.4565 47.1804 27.4755 46.8744 27.4843Z" fill="url(#paint6_linear_29_942)"/>
<path d="M38.6606 24.262C38.6179 24.2901 38.8343 25.299 39.1402 26.5065L39.6936 28.6989L39.6249 30.5246L39.5601 32.3425L39.8853 32.0704C40.0555 31.9185 41.2985 30.89 42.6462 29.7853C43.986 28.6767 45.1008 27.7327 45.1198 27.6931C45.1426 27.6457 45.122 27.5872 45.0745 27.5644C45.0271 27.5416 44.0913 27.6666 42.9992 27.8333C41.9033 28.008 40.9441 28.1412 40.8695 28.1345C40.7635 28.1323 39.7688 26.312 38.7833 24.3306C38.7549 24.2683 38.6916 24.2379 38.6606 24.262Z" fill="url(#paint7_linear_29_942)"/>
<path d="M43.2283 30.3566C41.8493 31.7091 40.7022 32.842 40.687 32.8736C40.6111 33.0318 40.9639 33.0065 42.3881 32.7559L43.9221 32.4996L44.6229 31.6682L45.3277 30.8485L45.5982 29.616C45.7481 28.9386 45.8829 28.2929 45.9085 28.1787C45.9304 28.0724 45.905 27.963 45.8497 27.9364C45.7943 27.9098 44.6731 28.9481 43.2283 30.3566Z" fill="url(#paint8_linear_29_942)"/>
<path d="M49.7114 31.3859L47.2997 31.7269L46.8005 32.6453C46.0116 34.0864 45.2513 35.6093 45.288 35.6951C45.3251 35.8004 45.4219 35.7204 47.0423 34.2502L48.4769 32.944L50.339 32.1056C51.3675 31.6456 52.2438 31.2391 52.2707 31.2033C52.4485 31.0356 51.9155 31.0717 49.7114 31.3859Z" fill="url(#paint9_linear_29_942)"/>
<path d="M30.9821 21.8706C30.9441 21.9497 31.3064 25.4322 31.381 25.6821C31.4019 25.7602 32.2637 26.3977 34.2922 27.8482C34.7724 28.1857 35.4077 28.6464 35.7054 28.8574C37.7662 30.3623 38.2341 30.6647 38.1556 30.4227C38.1395 30.3955 36.8263 28.7726 35.2214 26.8247C33.6202 24.869 32.0792 22.9908 31.8109 22.6577C31.1785 21.887 31.039 21.7519 30.9821 21.8706Z" fill="url(#paint10_linear_29_942)"/>
<path d="M31.7923 27.3196C31.7892 27.3667 31.9844 27.7913 32.2311 28.2503L32.6842 29.0906L33.545 29.6692C34.0132 29.9912 34.6203 30.4091 34.8823 30.5932C35.335 30.9273 35.3862 30.9422 36.267 31.0535C36.7624 31.1162 37.1911 31.176 37.199 31.1798C37.2148 31.1873 37.2338 31.1478 37.2445 31.0848C37.2474 31.0181 36.2505 30.2769 34.7105 29.1873C32.0514 27.3272 31.8056 27.1702 31.7923 27.3196Z" fill="url(#paint11_linear_29_942)"/>
<path d="M42.2368 33.598L40.8328 33.8875L39.4829 35.0982L38.133 36.3089L35.5689 36.9271C34.1617 37.2638 32.9776 37.5615 32.9349 37.5896C32.7134 37.7266 33.1066 37.7791 35.3373 37.8962L37.729 38.0224L40.314 36.9957L42.899 35.9691L43.2862 34.6758C43.4905 33.9662 43.6576 33.3749 43.6493 33.3515C43.6411 33.3281 43.0033 33.4404 42.2368 33.598Z" fill="url(#paint12_linear_29_942)"/>
<path d="M27.8328 26.1005C26.6066 25.7357 25.724 25.7499 25.2871 26.1533C25.1286 26.3011 25.0052 26.4365 25.0134 26.4599C25.0216 26.4833 25.3946 26.7402 25.8505 27.0271L26.687 27.5551L27.916 27.1232C28.5988 26.8768 29.172 26.6557 29.1872 26.624C29.2251 26.5449 28.8974 26.4168 27.8328 26.1005Z" fill="url(#paint13_linear_29_942)"/>
<path d="M38.0241 33.1912L36.3587 33.8223L36.0987 34.2425C35.2578 35.6294 35.1553 35.843 35.274 35.8999C35.3451 35.9341 35.9541 35.7398 36.6444 35.4775L37.8963 34.9982L38.8827 33.8758C39.4221 33.2589 39.8729 32.7454 39.8843 32.7217C39.9792 32.524 39.4398 32.6543 38.0241 33.1912Z" fill="url(#paint14_linear_29_942)"/>
<path d="M29.2135 28.4952C28.6981 28.6566 27.1328 29.1606 25.7313 29.607C24.3298 30.0534 23.1669 30.4488 23.1517 30.4805C23.1024 30.5833 23.1024 30.5833 25.7566 31.1761C28.1746 31.7139 28.2926 31.7316 29.9333 31.7601C33.8033 31.8271 34.7685 31.8233 34.8065 31.7442C34.8331 31.6889 34.3051 31.3089 33.3696 30.7236C32.093 29.9163 31.7871 29.6819 31.149 29.0447C30.7384 28.6433 30.348 28.2807 30.2768 28.2466C30.2056 28.2124 29.7247 28.3222 29.2135 28.4952Z" fill="url(#paint15_linear_29_942)"/>
<path d="M18.1393 23.0824C18.1241 23.1141 18.8385 23.8559 19.7275 24.7205L21.3384 26.3112L22.5301 26.4842C23.1869 26.5756 23.7408 26.6177 23.7598 26.5782C23.8016 26.4912 23.7184 26.4415 20.8287 24.6361C18.3155 23.06 18.1849 22.9875 18.1393 23.0824Z" fill="url(#paint16_linear_29_942)"/>
<path d="M16.0345 20.4831C15.9768 20.5034 15.8594 20.8148 15.7429 21.1906C15.6327 21.5534 15.429 22.1112 15.273 22.4361L15.0053 23.0271L13.8186 23.0011C12.7156 22.9673 12.3169 23.0318 12.3907 23.2111C12.4042 23.2496 12.9937 23.4206 13.699 23.5833C14.6825 23.7995 15.26 24.0288 16.1058 24.4987C16.9448 24.9493 17.2109 25.0611 17.1891 24.9067C17.1548 24.3786 16.2996 20.5304 16.2217 20.493C16.1697 20.468 16.0922 20.4628 16.0345 20.4831Z" fill="url(#paint17_linear_29_942)"/>
<path d="M32.5879 32.6157C30.7635 32.6255 29.2535 32.6695 29.2307 32.717C29.1851 32.8119 31.2456 34.5405 31.6215 34.7306C31.8271 34.8293 34.3833 35.4237 34.4769 35.3908C34.5004 35.3826 34.7942 34.8717 35.1179 34.2582C35.4336 33.641 35.7768 33.0273 35.861 32.8925C35.9414 32.7656 35.9904 32.6432 35.955 32.6359C35.9233 32.6207 34.4086 32.6138 32.5879 32.6157Z" fill="url(#paint18_linear_29_942)"/>
<path d="M22.6798 28.0651L20.0338 27.6014L18.7202 28.3353C17.2024 29.2039 16.7881 29.4856 16.8405 29.6349C16.8728 29.6969 17.7887 29.8884 18.9047 30.083C20.0142 30.2589 20.9548 30.4313 20.9926 30.4494C21.1565 30.528 25.7895 28.984 25.7748 28.8529C25.7587 28.6281 25.4825 28.5575 22.6798 28.0651Z" fill="url(#paint19_linear_29_942)"/>
<path d="M14.2977 33.8721L12.4957 33.8585L11.708 34.4897C10.8 35.2326 10.5571 35.4649 10.6083 35.5578C10.6365 35.5953 11.2638 35.6205 12.0237 35.6255C12.7773 35.619 13.4187 35.6288 13.4457 35.6366C13.5628 35.6705 16.457 34.1354 16.4328 34.0504C16.3972 33.9034 16.2066 33.8873 14.2977 33.8721Z" fill="url(#paint20_linear_29_942)"/>
<path d="M18.0793 25.4376C18.0489 25.5009 18.1606 25.8562 18.3352 26.2222C18.5061 26.5961 18.6254 26.9356 18.6026 26.983C18.5798 27.0305 18.3327 27.2817 18.0464 27.5335C17.768 27.7891 17.5168 28.0286 17.5016 28.0603C17.4143 28.2422 17.6601 28.1558 18.3485 27.7758C18.7921 27.5411 19.3808 27.3079 19.7601 27.2273C20.1161 27.1548 20.4008 27.0482 20.3764 26.9976C20.36 26.9507 19.8952 26.6012 19.3555 26.2253C18.8158 25.8495 18.3194 25.4847 18.2558 25.4348C18.1802 25.3693 18.1135 25.3664 18.0793 25.4376Z" fill="url(#paint21_linear_29_942)"/>
<path d="M14.4164 26.3749C13.1743 26.1473 11.6217 25.8627 11.0006 25.7489C9.98222 25.5672 9.55089 25.698 8.04223 26.6016C6.33788 27.657 5.75179 28.1742 6.17614 28.3779C6.56254 28.5327 11.0316 29.2036 11.5888 29.1946C12.702 29.1147 16.9594 27.4113 16.8306 27.1038C16.7408 26.9071 15.6954 26.5896 14.4164 26.3749Z" fill="url(#paint22_linear_29_942)"/>
<path d="M28.0779 33.3996C28.0545 33.4078 27.3895 33.293 26.6062 33.1408C25.4923 32.9273 24.9522 32.7751 24.1306 32.4392C23.5618 32.2051 23.0411 32.033 22.9905 32.0573C22.8617 32.1026 20.9164 33.1346 20.905 33.1583C20.8823 33.2058 23.5195 34.1991 23.6409 34.1893C24.6128 34.1108 28.3604 33.6423 28.387 33.5869C28.4174 33.5236 28.1715 33.3667 28.0779 33.3996Z" fill="url(#paint23_linear_29_942)"/>
<path d="M29.7073 35.7385C28.0382 35.4045 26.637 35.1407 26.5902 35.1571C26.481 35.202 28.4504 36.1473 29.7896 36.7025L30.7851 37.122L31.8839 36.8806C32.49 36.7531 33.0215 36.6189 33.0522 36.5753C33.1721 36.4674 32.7387 36.3567 29.7073 35.7385Z" fill="url(#paint24_linear_29_942)"/>
<path d="M24.3269 34.8576C22.7739 34.9101 22.7542 34.9105 21.8741 34.5951C21.3847 34.4185 20.7928 34.2123 20.552 34.1259L20.118 33.976L18.0594 34.7979C16.9326 35.2399 16.0211 35.6587 16.0376 35.7055C16.054 35.7524 17.2689 35.8976 18.7346 36.0269L21.4024 36.2468L23.6252 35.6302C24.8517 35.2847 25.8869 34.9933 25.9179 34.9693C26.1276 34.8364 25.7034 34.8079 24.3269 34.8576Z" fill="url(#paint25_linear_29_942)"/>
<path d="M2.53871 30.5727C2.57563 30.6226 3.76405 31.133 5.16626 31.6976L7.72297 32.7398L8.78494 32.6489C10.502 32.5173 15.4899 32.1756 18.7637 31.9826C20.4263 31.8817 21.8048 31.7882 21.8173 31.7789C21.9358 31.6913 21.2369 31.5424 17.2275 30.7934L12.6919 30.4657L9.52296 29.8637C6.2308 29.771 6.00728 29.782 3.77307 30.2191C2.79579 30.4114 2.48334 30.4978 2.53871 30.5727Z" fill="url(#paint26_linear_29_942)"/>
<defs>
<linearGradient id="paint0_linear_29_942" x1="31.8638" y1="17.424" x2="30.9983" y2="15.6376" gradientUnits="userSpaceOnUse">
<stop stop-color="#7851A9"/>
<stop offset="0.59375" stop-color="#31B84F"/>
<stop offset="0.786458" stop-color="#936689"/>
<stop offset="1" stop-color="#FF0CC9"/>
</linearGradient>
<linearGradient id="paint1_linear_29_942" x1="36.1577" y1="19.2646" x2="35.5109" y2="17.9302" gradientUnits="userSpaceOnUse">
<stop stop-color="#7851A9"/>
<stop offset="0.59375" stop-color="#31B84F"/>
<stop offset="0.786458" stop-color="#936689"/>
<stop offset="1" stop-color="#FF0CC9"/>
</linearGradient>
<linearGradient id="paint2_linear_29_942" x1="32.9765" y1="23.19" x2="32.5013" y2="21.7729" gradientUnits="userSpaceOnUse">
<stop stop-color="#7851A9"/>
<stop offset="0.59375" stop-color="#31B84F"/>
<stop offset="0.786458" stop-color="#936689"/>
<stop offset="1" stop-color="#FF0CC9"/>
</linearGradient>
<linearGradient id="paint3_linear_29_942" x1="48.325" y1="26.1059" x2="48.3567" y2="25.774" gradientUnits="userSpaceOnUse">
<stop stop-color="#7851A9"/>
<stop offset="0.59375" stop-color="#31B84F"/>
<stop offset="0.786458" stop-color="#936689"/>
<stop offset="1" stop-color="#FF0CC9"/>
</linearGradient>
<linearGradient id="paint4_linear_29_942" x1="55.3872" y1="30.6496" x2="55.3687" y2="30.0487" gradientUnits="userSpaceOnUse">
<stop stop-color="#7851A9"/>
<stop offset="0.59375" stop-color="#31B84F"/>
<stop offset="0.786458" stop-color="#936689"/>
<stop offset="1" stop-color="#FF0CC9"/>
</linearGradient>
<linearGradient id="paint5_linear_29_942" x1="43.3523" y1="26.6386" x2="43.1571" y2="26.1627" gradientUnits="userSpaceOnUse">
<stop stop-color="#7851A9"/>
<stop offset="0.59375" stop-color="#31B84F"/>
<stop offset="0.786458" stop-color="#936689"/>
<stop offset="1" stop-color="#FF0CC9"/>
</linearGradient>
<linearGradient id="paint6_linear_29_942" x1="47.3848" y1="30.2161" x2="47.1724" y2="29.7502" gradientUnits="userSpaceOnUse">
<stop stop-color="#7851A9"/>
<stop offset="0.59375" stop-color="#31B84F"/>
<stop offset="0.786458" stop-color="#936689"/>
<stop offset="1" stop-color="#FF0CC9"/>
</linearGradient>
<linearGradient id="paint7_linear_29_942" x1="39.6574" y1="29.8073" x2="39.2181" y2="29.0171" gradientUnits="userSpaceOnUse">
<stop stop-color="#7851A9"/>
<stop offset="0.59375" stop-color="#31B84F"/>
<stop offset="0.786458" stop-color="#936689"/>
<stop offset="1" stop-color="#FF0CC9"/>
</linearGradient>
<linearGradient id="paint8_linear_29_942" x1="42.9882" y1="31.5295" x2="42.6446" y2="31.1998" gradientUnits="userSpaceOnUse">
<stop stop-color="#7851A9"/>
<stop offset="0.59375" stop-color="#31B84F"/>
<stop offset="0.786458" stop-color="#936689"/>
<stop offset="1" stop-color="#FF0CC9"/>
</linearGradient>
<linearGradient id="paint9_linear_29_942" x1="48.0779" y1="34.3813" x2="47.6654" y2="33.9228" gradientUnits="userSpaceOnUse">
<stop stop-color="#7851A9"/>
<stop offset="0.59375" stop-color="#31B84F"/>
<stop offset="0.786458" stop-color="#936689"/>
<stop offset="1" stop-color="#FF0CC9"/>
</linearGradient>
<linearGradient id="paint10_linear_29_942" x1="33.7911" y1="26.6558" x2="33.6494" y2="25.7838" gradientUnits="userSpaceOnUse">
<stop stop-color="#7851A9"/>
<stop offset="0.59375" stop-color="#31B84F"/>
<stop offset="0.786458" stop-color="#936689"/>
<stop offset="1" stop-color="#FF0CC9"/>
</linearGradient>
<linearGradient id="paint11_linear_29_942" x1="33.9872" y1="29.5808" x2="34.0127" y2="29.2145" gradientUnits="userSpaceOnUse">
<stop stop-color="#7851A9"/>
<stop offset="0.59375" stop-color="#31B84F"/>
<stop offset="0.786458" stop-color="#936689"/>
<stop offset="1" stop-color="#FF0CC9"/>
</linearGradient>
<linearGradient id="paint12_linear_29_942" x1="37.4956" y1="36.6935" x2="36.9475" y2="35.792" gradientUnits="userSpaceOnUse">
<stop stop-color="#FFE70C"/>
<stop offset="0.307292" stop-color="#31B84F"/>
<stop offset="0.770833" stop-color="#936689"/>
<stop offset="1" stop-color="#FF0CC9"/>
</linearGradient>
<linearGradient id="paint13_linear_29_942" x1="26.7447" y1="26.8478" x2="26.6723" y2="26.5017" gradientUnits="userSpaceOnUse">
<stop stop-color="#7851A9"/>
<stop offset="0.59375" stop-color="#31B84F"/>
<stop offset="0.786458" stop-color="#936689"/>
<stop offset="1" stop-color="#FF0CC9"/>
</linearGradient>
<linearGradient id="paint14_linear_29_942" x1="37.0747" y1="34.928" x2="36.798" y2="34.631" gradientUnits="userSpaceOnUse">
<stop stop-color="#7851A9"/>
<stop offset="0.59375" stop-color="#31B84F"/>
<stop offset="0.786458" stop-color="#936689"/>
<stop offset="1" stop-color="#FF0CC9"/>
</linearGradient>
<linearGradient id="paint15_linear_29_942" x1="28.375" y1="31.129" x2="28.2221" y2="30.1844" gradientUnits="userSpaceOnUse">
<stop stop-color="#7851A9"/>
<stop offset="0.59375" stop-color="#31B84F"/>
<stop offset="0.786458" stop-color="#936689"/>
<stop offset="1" stop-color="#FF0CC9"/>
</linearGradient>
<linearGradient id="paint16_linear_29_942" x1="20.3871" y1="25.2629" x2="20.4216" y2="24.9271" gradientUnits="userSpaceOnUse">
<stop stop-color="#7851A9"/>
<stop offset="0.59375" stop-color="#31B84F"/>
<stop offset="0.786458" stop-color="#936689"/>
<stop offset="1" stop-color="#FF0CC9"/>
</linearGradient>
<linearGradient id="paint17_linear_29_942" x1="15.0361" y1="22.9519" x2="14.7885" y2="22.4111" gradientUnits="userSpaceOnUse">
<stop stop-color="#7851A9"/>
<stop offset="0.59375" stop-color="#31B84F"/>
<stop offset="0.786458" stop-color="#936689"/>
<stop offset="1" stop-color="#FF0CC9"/>
</linearGradient>
<linearGradient id="paint18_linear_29_942" x1="31.9075" y1="33.4637" x2="31.7231" y2="32.8672" gradientUnits="userSpaceOnUse">
<stop stop-color="#7851A9"/>
<stop offset="0.59375" stop-color="#31B84F"/>
<stop offset="0.786458" stop-color="#936689"/>
<stop offset="1" stop-color="#FF0CC9"/>
</linearGradient>
<linearGradient id="paint19_linear_29_942" x1="20.6465" y1="29.7244" x2="20.4253" y2="28.9712" gradientUnits="userSpaceOnUse">
<stop stop-color="#7851A9"/>
<stop offset="0.59375" stop-color="#31B84F"/>
<stop offset="0.786458" stop-color="#936689"/>
<stop offset="1" stop-color="#FF0CC9"/>
</linearGradient>
<linearGradient id="paint20_linear_29_942" x1="13.1364" y1="35.1953" x2="12.9065" y2="34.7214" gradientUnits="userSpaceOnUse">
<stop stop-color="#7851A9"/>
<stop offset="0.59375" stop-color="#31B84F"/>
<stop offset="0.786458" stop-color="#936689"/>
<stop offset="1" stop-color="#FF0CC9"/>
</linearGradient>
<linearGradient id="paint21_linear_29_942" x1="18.4388" y1="27.559" x2="18.2608" y2="27.2605" gradientUnits="userSpaceOnUse">
<stop stop-color="#7851A9"/>
<stop offset="0.59375" stop-color="#31B84F"/>
<stop offset="0.786458" stop-color="#936689"/>
<stop offset="1" stop-color="#FF0CC9"/>
</linearGradient>
<linearGradient id="paint22_linear_29_942" x1="10.6055" y1="28.3374" x2="10.3185" y2="27.4213" gradientUnits="userSpaceOnUse">
<stop stop-color="#7851A9"/>
<stop offset="0.59375" stop-color="#31B84F"/>
<stop offset="0.786458" stop-color="#936689"/>
<stop offset="1" stop-color="#FF0CC9"/>
</linearGradient>
<linearGradient id="paint23_linear_29_942" x1="24.1489" y1="33.6297" x2="24.0842" y2="33.0728" gradientUnits="userSpaceOnUse">
<stop stop-color="#7851A9"/>
<stop offset="0.59375" stop-color="#31B84F"/>
<stop offset="0.786458" stop-color="#936689"/>
<stop offset="1" stop-color="#FF0CC9"/>
</linearGradient>
<linearGradient id="paint24_linear_29_942" x1="29.4222" y1="35.9769" x2="29.4512" y2="35.6303" gradientUnits="userSpaceOnUse">
<stop stop-color="#FFE70C"/>
<stop offset="0.307292" stop-color="#31B84F"/>
<stop offset="0.770833" stop-color="#936689"/>
<stop offset="1" stop-color="#FF0CC9"/>
</linearGradient>
<linearGradient id="paint25_linear_29_942" x1="20.2727" y1="35.8646" x2="20.0447" y2="35.038" gradientUnits="userSpaceOnUse">
<stop stop-color="#7851A9"/>
<stop offset="0.59375" stop-color="#31B84F"/>
<stop offset="0.786458" stop-color="#936689"/>
<stop offset="1" stop-color="#FF0CC9"/>
</linearGradient>
<linearGradient id="paint26_linear_29_942" x1="12.8093" y1="33.2232" x2="11.055" y2="33.1616" gradientUnits="userSpaceOnUse">
<stop stop-color="#7851A9"/>
<stop offset="0.59375" stop-color="#31B84F"/>
<stop offset="0.786458" stop-color="#936689"/>
<stop offset="1" stop-color="#FF0CC9"/>
</linearGradient>
</defs>
</svg>
