<svg width="10" height="40" viewBox="0 0 10 40" fill="none" xmlns="http://www.w3.org/2000/svg">
<path d="M5 40C3.625 40 2.44792 39.5104 1.46875 38.5312C0.489583 37.5521 0 36.375 0 35C0 33.625 0.489583 32.4479 1.46875 31.4688C2.44792 30.4896 3.625 30 5 30C6.375 30 7.55208 30.4896 8.53125 31.4688C9.51042 32.4479 10 33.625 10 35C10 36.375 9.51042 37.5521 8.53125 38.5312C7.55208 39.5104 6.375 40 5 40ZM5 25C3.625 25 2.44792 24.5104 1.46875 23.5312C0.489583 22.5521 0 21.375 0 20C0 18.625 0.489583 17.4479 1.46875 16.4688C2.44792 15.4896 3.625 15 5 15C6.375 15 7.55208 15.4896 8.53125 16.4688C9.51042 17.4479 10 18.625 10 20C10 21.375 9.51042 22.5521 8.53125 23.5312C7.55208 24.5104 6.375 25 5 25ZM5 10C3.625 10 2.44792 9.51042 1.46875 8.53125C0.489583 7.55208 0 6.375 0 5C0 3.625 0.489583 2.44792 1.46875 1.46875C2.44792 0.489583 3.625 0 5 0C6.375 0 7.55208 0.489583 8.53125 1.46875C9.51042 2.44792 10 3.625 10 5C10 6.375 9.51042 7.55208 8.53125 8.53125C7.55208 9.51042 6.375 10 5 10Z" fill="#1C1B1F"/>
</svg>
