<svg width="292" height="223" viewBox="0 0 292 223" fill="none" xmlns="http://www.w3.org/2000/svg">
<path d="M214.66 1.58645C214.667 1.97063 210.767 8.96381 206.023 17.0302L197.422 31.8007L191.87 35.367C182.952 41.2083 157.199 58.3766 140.414 69.7986C131.879 75.5845 124.765 80.334 124.669 80.3358C123.756 80.3535 126.622 76.9833 143.455 58.1622L162.453 36.9453L177.728 24.4956C193.524 11.6035 194.662 10.8128 207.27 4.51579C212.79 1.76677 214.649 1.0102 214.66 1.58645Z" fill="url(#paint0_linear_1_39)"/>
<path d="M178.877 14.337C178.885 14.7692 157.271 34.7877 143.953 46.623C128.651 60.2262 112.05 73.7104 111.554 72.9033C111.406 72.666 112.89 69.947 114.896 66.8337L118.535 61.2387L148.534 37.599C165 24.5978 178.581 13.9584 178.678 13.9565C178.774 13.9547 178.873 14.1449 178.877 14.337Z" fill="url(#paint1_linear_1_39)"/>
<path d="M189.917 46.1177C189.415 47.5205 173.976 68.9088 173.028 69.5516C172.459 69.947 168.7 71.7972 164.653 73.701C158.084 76.8066 146.754 82.1662 121.715 93.9882C117.287 96.0436 113.618 97.6038 113.469 97.3665C113.27 97.0341 123.968 88.8044 157.726 63.2664C167.1 56.1673 167.812 55.7211 178.236 50.7154C184.185 47.814 189.279 45.4575 189.616 45.451C189.904 45.4454 190.053 45.7307 189.917 46.1177Z" fill="url(#paint2_linear_1_39)"/>
<path d="M82.5249 54.8259C86.2402 55.6668 88.4151 56.3453 88.2785 56.7322C88.0975 57.3122 72.722 62.1255 70.7531 62.1637C67.9688 62.2656 53.4142 59.8571 53.404 59.3289C53.391 58.6566 72.6027 53.4807 75.0527 53.4814C75.9171 53.4646 79.2436 54.0728 82.5249 54.8259Z" fill="url(#paint3_linear_1_39)"/>
<path d="M12.0468 57.1031C17.2047 58.0121 27.4233 59.7839 34.7006 60.9881C41.9788 62.2404 48.1017 63.3709 48.2966 63.5112C48.6383 63.7928 46.2168 70.2289 45.5104 70.9632C45.0866 71.4038 0.982355 56.3084 0.9712 55.7322C0.960045 55.1559 1.7792 55.2842 12.0468 57.1031Z" fill="url(#paint4_linear_1_39)"/>
<path d="M98.0824 64.373C102.233 67.8476 102.626 68.3204 105.024 73.0779C107.671 78.263 107.978 79.2178 107.065 79.2355C106.633 79.2438 83.0702 65.6244 82.239 64.8719C82.0432 64.6835 84.2834 63.7754 87.244 62.8534C90.1557 61.8843 92.8291 61.0158 93.1154 60.9142C93.4497 60.8117 95.6413 62.3546 98.0824 64.373Z" fill="url(#paint5_linear_1_39)"/>
<path d="M76.6579 69.3995C77.9675 70.0467 78.9189 72.0459 78.51 73.2548C78.3263 73.6907 77.5719 74.4259 76.7648 74.922C75.8626 75.4679 75.4416 76.0525 75.5949 76.5299C75.7464 76.9113 75.1761 79.7086 74.3703 82.7507L72.8435 88.2568L63.5022 79.6944C53.7684 70.7073 52.732 69.2862 56.4418 69.8389C57.405 69.9643 60.049 70.0573 62.354 70.0127L66.5319 69.9318L67.8703 72.0677C69.1117 74.1574 71.1094 75.6079 72.6941 75.5772C73.5585 75.5605 73.5585 75.5605 72.6607 73.8485C71.712 71.9933 72.1625 70.4473 73.8265 69.5504C75.3945 68.6553 75.1544 68.66 76.6579 69.3995Z" fill="url(#paint6_linear_1_39)"/>
<path d="M124.892 72.0206C125.041 72.2579 121.67 76.7908 117.401 82.1097L109.662 91.7714L105.854 101.021L102.044 110.222L101.043 108.128C100.541 106.984 96.6877 99.0363 92.4865 90.4705C88.3334 81.9038 84.9266 74.6678 84.922 74.4276C84.9164 74.1395 85.1519 73.8948 85.44 73.8892C85.7281 73.8836 90.1049 76.6332 95.1652 79.9461C100.226 83.3069 104.701 86.1507 105.088 86.2873C105.621 86.5172 114.713 79.7118 124.125 72.0834C124.408 71.8378 124.793 71.8303 124.892 72.0206Z" fill="url(#paint7_linear_1_39)"/>
<path d="M88.2885 91.993C92.0826 101.864 95.2207 110.114 95.2244 110.306C95.243 111.266 93.5437 110.338 87.0196 105.853L79.9616 101.09L78.3614 95.3558L76.7141 89.671L78.1686 82.9173C78.9615 79.2029 79.758 75.6806 79.89 75.0535C80.0229 74.4745 80.3977 73.9868 80.7339 73.9803C81.0701 73.9738 84.294 81.6938 88.2885 91.993Z" fill="url(#paint8_linear_1_39)"/>
<path d="M53.6581 82.3829L64.8943 89.5635L65.293 95.2725C65.9471 104.243 66.2715 113.557 65.8938 113.9C65.47 114.341 65.1698 113.722 60.441 102.716L56.2646 92.9492L48.896 84.5408C44.8191 79.9118 41.3785 75.8951 41.3259 75.6559C40.8215 74.4166 43.3945 75.808 53.6581 82.3829Z" fill="url(#paint9_linear_1_39)"/>
<path d="M168.572 77.5644C168.581 78.0446 158.86 94.5662 157.92 95.6413C157.639 95.983 151.898 97.1991 138.497 99.8124C135.338 100.402 131.127 101.252 129.165 101.626C115.48 104.437 112.462 104.88 113.403 103.853C113.545 103.754 123.775 98.6562 136.196 92.603C148.616 86.5017 160.561 80.6499 162.654 79.6005C167.556 77.1998 168.558 76.8441 168.572 77.5644Z" fill="url(#paint10_linear_1_39)"/>
<path d="M152.151 102.863C152.06 103.105 150.123 104.776 147.85 106.501L143.684 109.656L138.081 110.581C135.017 111.121 131.043 111.822 129.32 112.144C126.306 112.779 126.017 112.736 121.377 111.289C118.767 110.475 116.496 109.798 116.448 109.799C116.352 109.801 116.347 109.561 116.437 109.223C116.574 108.884 123.224 107.458 133.371 105.532C150.844 102.312 152.425 102.089 152.151 102.863Z" fill="url(#paint11_linear_1_39)"/>
<path d="M85.8584 110.391L92.1932 115.025L96.1645 124.123L100.136 133.222L111.501 142.129C117.745 147.005 122.966 151.179 123.115 151.416C123.906 152.602 121.828 151.97 110.452 147.482L98.253 142.674L87.7118 131.685L77.1706 120.696L78.1818 113.374C78.7769 109.375 79.2891 106.051 79.3832 105.953C79.4774 105.855 82.3987 107.864 85.8584 110.391Z" fill="url(#paint12_linear_1_39)"/>
<path d="M174.642 105.79C181.579 106.761 185.943 108.838 187.202 111.84C187.655 112.936 187.962 113.891 187.868 113.989C187.774 114.087 185.332 114.519 182.409 114.911L177.043 115.64L171.903 110.695C169.063 107.916 166.711 105.511 166.707 105.319C166.698 104.839 168.621 104.946 174.642 105.79Z" fill="url(#paint13_linear_1_39)"/>
<path d="M107.766 117.942L114.626 124.871L114.966 127.554C116.002 136.374 116.027 137.67 115.306 137.684C114.874 137.693 112.283 135.341 109.441 132.465L104.295 127.233L101.934 119.4C100.65 115.101 99.5715 111.519 99.5687 111.375C99.5454 110.174 101.936 112.05 107.766 117.942Z" fill="url(#paint14_linear_1_39)"/>
<path d="M162.322 114.58C164.522 116.555 171.173 122.623 177.139 128.032C183.104 133.441 187.997 138.054 188.001 138.247C188.013 138.871 188.013 138.871 173.446 135.79C160.18 132.972 159.552 132.792 151.316 129.205C131.888 120.741 127.09 118.528 127.08 118.048C127.074 117.712 130.567 117.02 136.557 116.231C144.75 115.112 146.807 114.64 151.433 112.917C154.391 111.851 157.159 110.933 157.592 110.924C158.024 110.916 160.169 112.556 162.322 114.58Z" fill="url(#paint15_linear_1_39)"/>
<path d="M229.783 112.793C229.787 112.986 224.543 115.057 218.149 117.342L206.51 121.603L200.181 119.756C196.702 118.718 193.848 117.669 193.843 117.428C193.833 116.9 194.36 116.842 212.857 114.418C228.956 112.281 229.772 112.217 229.783 112.793Z" fill="url(#paint16_linear_1_39)"/>
<path d="M246.174 104.632C246.415 104.864 246.293 106.682 246.018 108.818C245.742 110.876 245.489 114.117 245.528 116.09L245.517 119.642L251.487 122.21C257.058 124.549 258.897 125.777 258.122 126.502C257.967 126.663 254.642 126.175 250.759 125.382C245.369 124.223 241.972 124.052 236.691 124.47C231.488 124.807 229.909 124.759 230.368 124.04C231.74 121.487 244.746 104.265 245.22 104.256C245.535 104.25 245.933 104.4 246.174 104.632Z" fill="url(#paint17_linear_1_39)"/>
<path d="M136.149 127.432C145.214 131.629 152.635 135.28 152.64 135.568C152.651 136.144 138.46 140.07 136.156 140.163C134.907 140.187 120.824 137.337 120.433 136.96C120.335 136.866 120.032 133.653 119.815 129.862C119.645 126.071 119.331 122.233 119.218 121.371C119.106 120.556 119.14 119.835 119.333 119.879C119.526 119.876 127.086 123.284 136.149 127.432Z" fill="url(#paint18_linear_1_39)"/>
<path d="M195.842 127.288L210.074 130.993L214.949 137.635C220.534 145.411 221.957 147.756 221.357 148.38C221.055 148.616 216.058 147.488 210.057 145.92C204.131 144.274 199.055 142.995 198.825 142.999C197.83 143.018 178.265 124.797 178.636 124.177C179.227 123.094 180.763 123.37 195.842 127.288Z" fill="url(#paint19_linear_1_39)"/>
<path d="M224.39 175.265L233.395 179.293L235.884 184.228C238.718 189.992 239.4 191.701 238.933 192.047C238.708 192.17 235.526 190.87 231.73 189.167C227.992 187.422 224.775 186.012 224.622 185.99C223.962 185.892 213.037 171.668 213.351 171.3C213.862 170.649 214.848 171.002 224.39 175.265Z" fill="url(#paint20_linear_1_39)"/>
<path d="M224.729 124.661C224.736 125.045 223.372 126.561 221.67 127.987C219.97 129.461 218.604 130.88 218.609 131.169C218.615 131.457 219.275 133.269 220.128 135.175C220.934 137.081 221.64 138.844 221.644 139.036C221.666 140.141 220.638 139.152 218.073 135.695C216.397 133.517 213.995 131.018 212.289 129.754C210.681 128.584 209.505 127.406 209.742 127.209C209.93 127.013 213.039 126.328 216.582 125.683C220.124 125.038 223.426 124.35 223.856 124.245C224.381 124.091 224.72 124.229 224.729 124.661Z" fill="url(#paint21_linear_1_39)"/>
<path d="M240.84 137.654C247.544 139.344 255.924 141.456 259.276 142.301C264.761 143.711 266.612 145.343 272.072 153.273C278.162 162.403 279.905 166.311 277.329 166.361C275.053 166.254 251.269 159.437 248.514 158.125C243.151 155.197 225.819 137.035 227.159 135.797C228.054 135.021 233.982 135.816 240.84 137.654Z" fill="url(#paint22_linear_1_39)"/>
<path d="M156.83 141.588C156.928 141.682 160.501 142.622 164.748 143.644C170.782 145.113 173.817 145.582 178.673 145.777C182.038 145.904 185.023 146.23 185.22 146.467C185.758 146.985 193.101 156.546 193.104 156.691C193.11 156.979 177.717 155.932 177.134 155.607C172.472 153.007 154.871 142.154 154.865 141.818C154.857 141.434 156.438 141.211 156.83 141.588Z" fill="url(#paint23_linear_1_39)"/>
<path d="M143.399 149.535C152.471 151.665 160.05 153.536 160.246 153.724C160.687 154.196 148.73 154.427 140.798 154.149L134.886 153.975L129.962 150.275C127.233 148.262 124.891 146.386 124.837 146.099C124.485 145.289 126.895 145.723 143.399 149.535Z" fill="url(#paint24_linear_1_39)"/>
<path d="M172.198 157.376C179.814 161.168 179.911 161.214 185.012 161.644C187.85 161.877 191.267 162.196 192.663 162.313L195.165 162.552L203.55 171.325C208.158 176.088 211.745 180.246 211.557 180.442C211.369 180.638 204.988 178.6 197.394 175.912L183.606 170.943L173.937 162.819C168.614 158.311 164.12 154.506 164.021 154.316C163.278 153.178 165.456 154 172.198 157.376Z" fill="url(#paint25_linear_1_39)"/>
<path d="M290.457 185.561C290.159 185.726 283.08 185.567 274.813 185.191L259.71 184.57L254.627 181.704C246.374 177.145 222.308 164.105 206.441 155.702C198.39 151.42 191.736 147.821 191.695 147.747C191.304 147.041 195.123 147.888 216.796 153.271L240.131 161.949L257.282 166.154C273.89 173.176 274.978 173.739 285.112 180.994C289.543 184.173 290.903 185.314 290.457 185.561Z" fill="url(#paint26_linear_1_39)"/>
<defs>
<linearGradient id="paint0_linear_1_39" x1="174.287" y1="53.4137" x2="182.658" y2="46.4838" gradientUnits="userSpaceOnUse">
<stop stop-color="#7851A9"/>
<stop offset="0.59375" stop-color="#31B84F"/>
<stop offset="0.786458" stop-color="#936689"/>
<stop offset="1" stop-color="#FF0CC9"/>
</linearGradient>
<linearGradient id="paint1_linear_1_39" x1="148.718" y1="52.8199" x2="154.972" y2="47.6442" gradientUnits="userSpaceOnUse">
<stop stop-color="#7851A9"/>
<stop offset="0.59375" stop-color="#31B84F"/>
<stop offset="0.786458" stop-color="#936689"/>
<stop offset="1" stop-color="#FF0CC9"/>
</linearGradient>
<linearGradient id="paint2_linear_1_39" x1="155.64" y1="79.6026" x2="161.228" y2="73.6247" gradientUnits="userSpaceOnUse">
<stop stop-color="#7851A9"/>
<stop offset="0.59375" stop-color="#31B84F"/>
<stop offset="0.786458" stop-color="#936689"/>
<stop offset="1" stop-color="#FF0CC9"/>
</linearGradient>
<linearGradient id="paint3_linear_1_39" x1="72.5662" y1="59.2368" x2="73.1623" y2="57.5118" gradientUnits="userSpaceOnUse">
<stop stop-color="#7851A9"/>
<stop offset="0.59375" stop-color="#31B84F"/>
<stop offset="0.786458" stop-color="#936689"/>
<stop offset="1" stop-color="#FF0CC9"/>
</linearGradient>
<linearGradient id="paint4_linear_1_39" x1="27.0639" y1="65.8146" x2="28.5216" y2="62.8638" gradientUnits="userSpaceOnUse">
<stop stop-color="#7851A9"/>
<stop offset="0.59375" stop-color="#31B84F"/>
<stop offset="0.786458" stop-color="#936689"/>
<stop offset="1" stop-color="#FF0CC9"/>
</linearGradient>
<linearGradient id="paint5_linear_1_39" x1="96.1221" y1="73.1933" x2="98.1762" y2="71.2668" gradientUnits="userSpaceOnUse">
<stop stop-color="#7851A9"/>
<stop offset="0.59375" stop-color="#31B84F"/>
<stop offset="0.786458" stop-color="#936689"/>
<stop offset="1" stop-color="#FF0CC9"/>
</linearGradient>
<linearGradient id="paint6_linear_1_39" x1="67.9063" y1="81.8451" x2="70.0232" y2="80.0074" gradientUnits="userSpaceOnUse">
<stop stop-color="#7851A9"/>
<stop offset="0.59375" stop-color="#31B84F"/>
<stop offset="0.786458" stop-color="#936689"/>
<stop offset="1" stop-color="#FF0CC9"/>
</linearGradient>
<linearGradient id="paint7_linear_1_39" x1="107.322" y1="97.374" x2="111.307" y2="94.4371" gradientUnits="userSpaceOnUse">
<stop stop-color="#7851A9"/>
<stop offset="0.59375" stop-color="#31B84F"/>
<stop offset="0.786458" stop-color="#936689"/>
<stop offset="1" stop-color="#FF0CC9"/>
</linearGradient>
<linearGradient id="paint8_linear_1_39" x1="86.8186" y1="98.381" x2="89.2791" y2="97.5195" gradientUnits="userSpaceOnUse">
<stop stop-color="#7851A9"/>
<stop offset="0.59375" stop-color="#31B84F"/>
<stop offset="0.786458" stop-color="#936689"/>
<stop offset="1" stop-color="#FF0CC9"/>
</linearGradient>
<linearGradient id="paint9_linear_1_39" x1="54.9847" y1="101.015" x2="58.0816" y2="99.669" gradientUnits="userSpaceOnUse">
<stop stop-color="#7851A9"/>
<stop offset="0.59375" stop-color="#31B84F"/>
<stop offset="0.786458" stop-color="#936689"/>
<stop offset="1" stop-color="#FF0CC9"/>
</linearGradient>
<linearGradient id="paint10_linear_1_39" x1="143.703" y1="95.0129" x2="146.391" y2="90.9916" gradientUnits="userSpaceOnUse">
<stop stop-color="#7851A9"/>
<stop offset="0.59375" stop-color="#31B84F"/>
<stop offset="0.786458" stop-color="#936689"/>
<stop offset="1" stop-color="#FF0CC9"/>
</linearGradient>
<linearGradient id="paint11_linear_1_39" x1="136.079" y1="109.136" x2="136.785" y2="107.254" gradientUnits="userSpaceOnUse">
<stop stop-color="#7851A9"/>
<stop offset="0.59375" stop-color="#31B84F"/>
<stop offset="0.786458" stop-color="#936689"/>
<stop offset="1" stop-color="#FF0CC9"/>
</linearGradient>
<linearGradient id="paint12_linear_1_39" x1="102.436" y1="136.586" x2="107.215" y2="133.342" gradientUnits="userSpaceOnUse">
<stop stop-color="#FFE70C"/>
<stop offset="0.307292" stop-color="#31B84F"/>
<stop offset="0.770833" stop-color="#936689"/>
<stop offset="1" stop-color="#FF0CC9"/>
</linearGradient>
<linearGradient id="paint13_linear_1_39" x1="178.363" y1="111.986" x2="179.511" y2="110.427" gradientUnits="userSpaceOnUse">
<stop stop-color="#7851A9"/>
<stop offset="0.59375" stop-color="#31B84F"/>
<stop offset="0.786458" stop-color="#936689"/>
<stop offset="1" stop-color="#FF0CC9"/>
</linearGradient>
<linearGradient id="paint14_linear_1_39" x1="108.547" y1="128.75" x2="110.6" y2="127.9" gradientUnits="userSpaceOnUse">
<stop stop-color="#7851A9"/>
<stop offset="0.59375" stop-color="#31B84F"/>
<stop offset="0.786458" stop-color="#936689"/>
<stop offset="1" stop-color="#FF0CC9"/>
</linearGradient>
<linearGradient id="paint15_linear_1_39" x1="160.512" y1="129.604" x2="163.42" y2="125.247" gradientUnits="userSpaceOnUse">
<stop stop-color="#7851A9"/>
<stop offset="0.59375" stop-color="#31B84F"/>
<stop offset="0.786458" stop-color="#936689"/>
<stop offset="1" stop-color="#FF0CC9"/>
</linearGradient>
<linearGradient id="paint16_linear_1_39" x1="213.631" y1="118.544" x2="214.223" y2="116.793" gradientUnits="userSpaceOnUse">
<stop stop-color="#7851A9"/>
<stop offset="0.59375" stop-color="#31B84F"/>
<stop offset="0.786458" stop-color="#936689"/>
<stop offset="1" stop-color="#FF0CC9"/>
</linearGradient>
<linearGradient id="paint17_linear_1_39" x1="245.535" y1="119.198" x2="247.998" y2="117.067" gradientUnits="userSpaceOnUse">
<stop stop-color="#7851A9"/>
<stop offset="0.59375" stop-color="#31B84F"/>
<stop offset="0.786458" stop-color="#936689"/>
<stop offset="1" stop-color="#FF0CC9"/>
</linearGradient>
<linearGradient id="paint18_linear_1_39" x1="137.611" y1="133.203" x2="139.885" y2="130.651" gradientUnits="userSpaceOnUse">
<stop stop-color="#7851A9"/>
<stop offset="0.59375" stop-color="#31B84F"/>
<stop offset="0.786458" stop-color="#936689"/>
<stop offset="1" stop-color="#FF0CC9"/>
</linearGradient>
<linearGradient id="paint19_linear_1_39" x1="202.197" y1="140.175" x2="205.011" y2="136.926" gradientUnits="userSpaceOnUse">
<stop stop-color="#7851A9"/>
<stop offset="0.59375" stop-color="#31B84F"/>
<stop offset="0.786458" stop-color="#936689"/>
<stop offset="1" stop-color="#FF0CC9"/>
</linearGradient>
<linearGradient id="paint20_linear_1_39" x1="227.166" y1="184.495" x2="229.388" y2="182.657" gradientUnits="userSpaceOnUse">
<stop stop-color="#7851A9"/>
<stop offset="0.59375" stop-color="#31B84F"/>
<stop offset="0.786458" stop-color="#936689"/>
<stop offset="1" stop-color="#FF0CC9"/>
</linearGradient>
<linearGradient id="paint21_linear_1_39" x1="218.116" y1="134.41" x2="219.681" y2="133.328" gradientUnits="userSpaceOnUse">
<stop stop-color="#7851A9"/>
<stop offset="0.59375" stop-color="#31B84F"/>
<stop offset="0.786458" stop-color="#936689"/>
<stop offset="1" stop-color="#FF0CC9"/>
</linearGradient>
<linearGradient id="paint22_linear_1_39" x1="255.36" y1="156.091" x2="258.872" y2="152.181" gradientUnits="userSpaceOnUse">
<stop stop-color="#7851A9"/>
<stop offset="0.59375" stop-color="#31B84F"/>
<stop offset="0.786458" stop-color="#936689"/>
<stop offset="1" stop-color="#FF0CC9"/>
</linearGradient>
<linearGradient id="paint23_linear_1_39" x1="175.876" y1="151.665" x2="177.464" y2="149.038" gradientUnits="userSpaceOnUse">
<stop stop-color="#7851A9"/>
<stop offset="0.59375" stop-color="#31B84F"/>
<stop offset="0.786458" stop-color="#936689"/>
<stop offset="1" stop-color="#FF0CC9"/>
</linearGradient>
<linearGradient id="paint24_linear_1_39" x1="144.277" y1="151.37" x2="144.92" y2="149.578" gradientUnits="userSpaceOnUse">
<stop stop-color="#FFE70C"/>
<stop offset="0.307292" stop-color="#31B84F"/>
<stop offset="0.770833" stop-color="#936689"/>
<stop offset="1" stop-color="#FF0CC9"/>
</linearGradient>
<linearGradient id="paint25_linear_1_39" x1="190.101" y1="171.608" x2="193.116" y2="168.009" gradientUnits="userSpaceOnUse">
<stop stop-color="#7851A9"/>
<stop offset="0.59375" stop-color="#31B84F"/>
<stop offset="0.786458" stop-color="#936689"/>
<stop offset="1" stop-color="#FF0CC9"/>
</linearGradient>
<linearGradient id="paint26_linear_1_39" x1="233.278" y1="175.416" x2="242.155" y2="179.097" gradientUnits="userSpaceOnUse">
<stop stop-color="#7851A9"/>
<stop offset="0.59375" stop-color="#31B84F"/>
<stop offset="0.786458" stop-color="#936689"/>
<stop offset="1" stop-color="#FF0CC9"/>
</linearGradient>
</defs>
</svg>
